<svg xmlns="http://www.w3.org/2000/svg" xmlns:xlink="http://www.w3.org/1999/xlink" width="524.88" height="543.324" viewBox="0 0 524.88 543.324">
  <defs>
    <linearGradient id="linear-gradient" x1="0.5" y1="1" x2="0.5" gradientUnits="objectBoundingBox">
      <stop offset="0" stop-color="gray" stop-opacity="0.251"/>
      <stop offset="0.54" stop-color="gray" stop-opacity="0.122"/>
      <stop offset="1" stop-color="gray" stop-opacity="0.102"/>
    </linearGradient>
  </defs>
  <g id="movie_strip" transform="translate(-200.69 -113.03)">
    <path id="Path_46" data-name="Path 46" d="M578.24,635.33S655.16,798.6,877.68,747.19c0,0-23.55-20.41,0-47.88L691.27,618.07Z" transform="translate(-152.12 -100.85)" fill="url(#linear-gradient)"/>
    <path id="Path_47" data-name="Path 47" d="M585.34,637.82s73.27,155.52,285.24,106.54c0,0-22.43-19.44,0-45.61L693,621.37Z" transform="translate(-152.12 -100.85)" fill="#ea2340"/>
    <circle id="Ellipse_1" data-name="Ellipse 1" cx="178.7" cy="178.7" r="178.7" transform="translate(284.43 196.77)" fill="url(#linear-gradient)"/>
    <circle id="Ellipse_2" data-name="Ellipse 2" cx="171.23" cy="171.23" r="171.23" transform="translate(291.9 204.24)" fill="#ea2340"/>
    <path id="Path_48" data-name="Path 48" d="M615.25,213.88c-144.94,0-262.44,117.5-262.44,262.44s117.5,262.44,262.44,262.44,262.44-117.5,262.44-262.44S760.19,213.88,615.25,213.88Zm95.57,137.05a162.42,162.42,0,1,0,0,.01ZM519.68,601.7a60.8,60.8,0,1,1,22.25-83.05,60.8,60.8,0,0,1-22.25,83.05ZM541.93,434a60.8,60.8,0,1,1-22.25-83.05A60.8,60.8,0,0,1,541.93,434Zm73.31,248.58a135.919,135.919,0,1,1,.02-.01ZM576.77,473.24a38.48,38.48,0,1,1,38.48,38.48A38.48,38.48,0,0,1,576.77,473.24Zm38.48-81.58a60.8,60.8,0,1,1,60.8-60.8A60.8,60.8,0,0,1,615.25,391.66ZM793.87,579.44a60.8,60.8,0,1,1-22.25-83.05A60.8,60.8,0,0,1,793.87,579.44Z" transform="translate(-152.12 -100.85)" fill="url(#linear-gradient)"/>
    <path id="Path_49" data-name="Path 49" d="M615.25,221.36c-140.81,0-255,114.15-255,255s114.15,255,255,255,255-114.15,255-255S756.06,221.36,615.25,221.36ZM708.1,354.51a43.24,43.24,0,1,1-.01,0ZM522.4,598.13A59.07,59.07,0,1,1,544,517.44,59.07,59.07,0,0,1,522.4,598.13ZM544,435.19a59.07,59.07,0,1,1-21.62-80.69A59.07,59.07,0,0,1,544,435.19Zm71.23,241.5a41.769,41.769,0,1,1,.01.01ZM577.86,473.33a37.38,37.38,0,1,1,37.38,37.38A37.38,37.38,0,0,1,577.86,473.33Zm37.38-79.25a169.611,169.611,0,1,1,.017-.01ZM788.78,576.51a59.07,59.07,0,1,1-21.62-80.69A59.07,59.07,0,0,1,788.78,576.51Z" transform="translate(-152.12 -100.85)" fill="#e6e6e6"/>
    <path id="Path_50" data-name="Path 50" d="M377.49,491.27c0-140.81,114.15-255,255-255a253.79,253.79,0,0,1,148.18,47.47,253.93,253.93,0,0,0-165.38-60.93c-140.81,0-255,114.15-255,255A254.63,254.63,0,0,0,467.07,685.3a254.38,254.38,0,0,1-89.58-194.03Z" transform="translate(-152.12 -100.85)" fill="#fff" opacity="0.2"/>
    <circle id="Ellipse_3" data-name="Ellipse 3" cx="42.99" cy="42.99" r="42.99" transform="translate(420.14 329.48)" fill="none" stroke="#fff" stroke-miterlimit="10" stroke-width="13" opacity="0.2"/>
  </g>
</svg>
