<svg id="movie_starwars2" xmlns="http://www.w3.org/2000/svg" width="640.715" height="663.915" viewBox="0 0 640.715 663.915">
  <path id="Path_136" data-name="Path 136" d="M680.788,724c26.4,6.29,52.17,16.22,79.22,19,34.3,3.53,69.58-4.6,103.14,3.35,15.63,3.7,32.28,13.17,34.95,29,2.42,14.4-7.95,28.07-20.06,36.22-24.71,16.63-56.31,17.84-86.09,18.5-33,.73-66.7,1.38-98.41-7.92-20.58-6-39.86-16.15-60.71-21.13-29-6.92-59.26-3.57-89-2.92-8.42.18-17,.12-25-2.65-5.19-1.81-9.94-4.72-15.17-6.41-10.25-3.32-21.36-1.69-32-.23a845.519,845.519,0,0,1-134.24,7.5c-22.26-.53-45.84-2.39-63.92-15.37-5.19-3.72-9.84-8.38-12.65-14.12-4.22-8.63-3.83-19-.73-28.08,7.69-22.58,30.56-37.25,53.95-41.92s47.55-1.06,71.13,2.54l110.51,16.94c7.83,1.2,15.73,2.41,23.19,5.09,8.55,3.06,16.33,8,24.79,11.28,24.31,9.51,39.79,2.87,61-6.35C629.188,715.64,655.038,717.78,680.788,724Z" transform="translate(-257.737 -166.535)" fill="#ea2340" opacity="0.1"/>
  <path id="Path_143" data-name="Path 143" d="M540.973,407.84s5.8,50.52,0,63.76c0,0,28.16,14.08,33.12,19.87,0,0,9.94-25.67,5-32.3s-19.87-59.62-19.87-59.62Z" transform="translate(-222.991 -166.535)" fill="#2a2a31"/>
  <path id="Path_149" data-name="Path 149" d="M311.068,702.65c9.94-9.11,59.62-18.22,59.62-18.22s38.09,12.42,91.09,6.62,129.21,28.16,129.21,28.16l-30.54-153.5-.93-4.67s-16.53-131.67-38.11-150.72-42.23-68.73-42.23-68.73c-38.92-40.58-93.58-10.77-93.58-10.77s-.3.75-.83,2.15c-4.33,11.52-23.95,66.56-16.56,100.53,4.83,22.22,2.62,34-.07,40a119.231,119.231,0,0,0-5.82,15.5c-3.49,11.94-11.6,31.16-19.9,49.59a387.849,387.849,0,0,0-32.66,123.89C307.558,686.64,306.848,706.51,311.068,702.65Z" transform="translate(-0.536 -166.535)" fill="#3e3f49"/>
  <path id="Path_150" data-name="Path 150" d="M521.663,330.82s26.5-14.91,19-20.7-46.37-8.28-46.37-8.28l-13.63,31.88Z" transform="translate(-124.212 -166.535)" fill="#151519"/>
  <path id="Path_151" data-name="Path 151" d="M507.6,338.27s30.64,6.62,25.67,24c0,0-5,10.77-9.94,14.08s31.47,7.45,31.47,7.45l20.7-16.56-2.9-22.77s-1.24-36-21.12-36S507.6,338.27,507.6,338.27Z" transform="translate(-184.649 -166.535)" fill="#535461"/>
  <path id="Path_162" data-name="Path 162" d="M405.278,505.55l-77,91.09s-9.94,31.47,14.08,42.23l9.94,11.59,40.58-15.73s-13.25-4.14,0-28.16,38.09-48,38.09-48l17.39-4.14,43.89,71.22s5,31.47,24.84,35.61l17.39,8.28,24-19L503,532.12s8.28-58-14.91-65.42Z" transform="translate(13.733 -166.535)" fill="#2a2a31"/>
  <path id="Path_163" data-name="Path 163" d="M413.838,376.77c-3.71,1.29-6.76,3.94-14.73-2.89,0,0-20.7,23.19-13.25,38.09s82.81,103.51,82.81,103.51l101-38.09s-31.47-41.41-26.5-58.8-36.44-78.67-66.25-74.53-37.27,6.62-37.27,6.62-4.34,22.41-19.77,24.68a33.168,33.168,0,0,0-6.04,1.41Z" transform="translate(-55.456 -166.535)" opacity="0.1"/>
  <path id="Path_164" data-name="Path 164" d="M413.838,374.29c-3.71,1.29-6.76,3.94-14.73-2.89,0,0-20.7,23.19-13.25,38.09S468.668,513,468.668,513l101-38.09s-31.47-41.41-26.5-58.8-36.44-78.67-66.25-74.53-37.27,6.62-37.27,6.62-4.34,22.41-19.77,24.68a33.168,33.168,0,0,0-6.04,1.41Z" transform="translate(-55.456 -166.535)" fill="#2a2a31"/>
  <path id="Path_165" data-name="Path 165" d="M540.72,358.15s-6.62,75.36-78.67,84.47l-26.5-32.3s41.41-20.7,41.41-26.5c0,0,15.73-12.42,10.77-33.12Z" transform="translate(-77.819 -166.535)" fill="#2a2a31"/>
  <path id="Path_166" data-name="Path 166" d="M585.782,373.06s-34.78,18.22-30.64,43.89c0,0,16.56-10.77,25.67-8.28Z" transform="translate(-242.131 -166.535)" opacity="0.1"/>
  <path id="Path_167" data-name="Path 167" d="M585.782,371.4s-34.78,18.22-30.64,43.89c0,0,16.56-10.77,25.67-8.28Z" transform="translate(-242.131 -166.535)" fill="#757681"/>
  <path id="Path_168" data-name="Path 168" d="M454.6,616.52s41.41,47.2,41.41,53.83c0,0,24,33.12,12.42,52.17s-34.78,22.36-34.78,22.36-12.42,9.11,7.45,13.25,82.81-9.94,82.81-9.94l-13.25-34s-14.08-43.06-14.08-52.17S524.99,624,524.99,624l-42.23,13.25-13.25-17.42-9.49-8.28Z" transform="translate(-120.059 -166.535)" opacity="0.1"/>
  <path id="Path_169" data-name="Path 169" d="M454.6,618.18s41.41,47.2,41.41,53.82c0,0,24,33.12,12.42,52.17s-34.78,22.36-34.78,22.36-12.42,9.11,7.45,13.25,82.81-9.94,82.81-9.94l-13.25-34s-14.08-43.06-14.08-52.17-11.59-38.09-11.59-38.09l-42.23,13.25-13.25-17.34-9.49-8.28Z" transform="translate(-120.059 -166.535)" fill="#535461"/>
  <path id="Path_170" data-name="Path 170" d="M290.63,638.05s41.41,47.2,41.41,53.83c0,0,24,33.12,12.42,52.17s-34.78,22.36-34.78,22.36-12.42,9.11,7.45,13.25,82.81-9.94,82.81-9.94l-13.25-34s-14.12-43.01-14.12-52.12-11.59-38.09-11.59-38.09l-42.23,13.25-13.18-17.39-9.49-8.28Z" transform="translate(207.881 -166.535)" opacity="0.1"/>
  <path id="Path_171" data-name="Path 171" d="M290.63,639.71s41.41,47.2,41.41,53.83c0,0,24,33.12,12.42,52.17s-34.78,22.36-34.78,22.36-12.42,9.11,7.45,13.25,82.81-9.94,82.81-9.94l-13.25-34s-14.12-43.01-14.12-52.12-11.59-38.09-11.59-38.09l-42.23,13.25L305.57,643l-9.49-8.28Z" transform="translate(207.881 -166.535)" fill="#535461"/>
  <path id="Path_172" data-name="Path 172" d="M776.871,412.81l-154-246s-11.59-2.48-9.94,7.45l156.49,246.83Z" transform="translate(-491.189 -166.535)" fill="#fc6681"/>
  <path id="Path_173" data-name="Path 173" d="M426.44,349.87l2.48,15.73S471.98,335,491.03,378l8.28-34.78S442.17,325,426.44,349.87Z" transform="translate(-27.299 -166.535)" opacity="0.1"/>
  <path id="Path_174" data-name="Path 174" d="M426.44,348.21l2.48,15.73s43.06-30.64,62.11,12.42l8.28-34.78S442.17,323.37,426.44,348.21Z" transform="translate(-27.299 -166.535)" fill="#757681"/>
  <path id="Path_175" data-name="Path 175" d="M338.56,334.63v15.24l14.91,7.45c32.3-28.16,64.59-7.45,64.59-7.45s47.2,75.36,55.48,82,40.68,135.51,40.68,135.51l-.93-4.67S496.78,431,475.2,412s-42.23-68.73-42.23-68.73c-38.92-40.58-93.58-10.77-93.58-10.77S339.09,333.23,338.56,334.63Z" transform="translate(45.672 -166.535)" opacity="0.1"/>
  <path id="Path_176" data-name="Path 176" d="M338.56,333v15.24l14.91,7.45c32.3-28.16,64.59-7.45,64.59-7.45s47.2,75.36,55.48,82,40.68,135.51,40.68,135.51l-.93-4.67S496.78,429.37,475.2,410.32s-42.23-68.73-42.23-68.73c-38.92-40.58-93.58-10.77-93.58-10.77S339.09,331.58,338.56,333Z" transform="translate(45.672 -166.535)" fill="#2a2a31"/>
  <path id="Path_177" data-name="Path 177" d="M560.19,310.12c5.4,0,10.25,2.45,14.45,6a39.76,39.76,0,0,1-37.31,33.69c-7.64-7-21-9.89-21-9.89S540.31,310.12,560.19,310.12Z" transform="translate(-192.519 -166.535)" opacity="0.1"/>
  <ellipse id="Ellipse_159" data-name="Ellipse 159" cx="39.75" cy="39.75" rx="39.75" ry="39.75" transform="translate(302.251 102.185)" fill="#535461"/>
  <path id="Path_178" data-name="Path 178" d="M501.51,262.92s31.47-19,48.86,6.62,15.73,18.22,15.73,18.22l34,24s-28.16,0-45.55,6.62c0,0-52.17-30.64-61.28-10.77,0,0-9.94,4.14-10.77,10.77,0,0-2.48-4.14,2.48-13.25C484.98,305.15,474.98,281.13,501.51,262.92Z" transform="translate(-183.529 -166.535)" opacity="0.1"/>
  <path id="Path_179" data-name="Path 179" d="M501.51,261.26s31.47-19,48.86,6.62S566.1,286.1,566.1,286.1l34,24s-28.16,0-45.55,6.62c0,0-52.17-30.64-61.28-10.77,0,0-9.94,4.14-10.77,10.77,0,0-2.48-4.14,2.48-13.25C484.98,303.49,474.98,279.48,501.51,261.26Z" transform="translate(-183.529 -166.535)" fill="#535461"/>
  <path id="Path_180" data-name="Path 180" d="M445.15,339.13l78.67,103.51L508.3,453.27,432.72,348.24Z" transform="translate(-159.459 -96.995)" fill="#9f9bad"/>
  <path id="Path_181" data-name="Path 181" d="M587.212,402.87s25.67,23.19,24,50.52c0,0-19-6.62-45.55,3.31s-32.3,14.91-32.3,14.91-27.33-14.08-24.84-24,14.13-14.1,14.13-14.1l23.19-5S583.9,409.49,587.212,402.87Z" transform="translate(-221.201 -166.535)" opacity="0.1"/>
  <path id="Path_182" data-name="Path 182" d="M588.862,402.87s25.67,23.19,24,50.52c0,0-19-6.62-45.55,3.31s-32.3,14.91-32.3,14.91-27.33-14.08-24.84-24,14.08-14.08,14.08-14.08l23.19-5S585.542,409.49,588.862,402.87Z" transform="translate(-224.501 -166.535)" fill="#757681"/>
  <path id="Path_183" data-name="Path 183" d="M547.65,477.4s-6.62,42.23,29.81,34c0,0,21.53-19.87,8.28-34S547.65,475.74,547.65,477.4Z" transform="translate(-238.779 -166.535)" opacity="0.1"/>
  <path id="Path_184" data-name="Path 184" d="M549.3,477.4s-6.62,42.23,29.81,34c0,0,21.53-19.87,8.28-34S549.3,475.74,549.3,477.4Z" transform="translate(-242.079 -166.535)" fill="#757681"/>
</svg>
